<svg xmlns="http://www.w3.org/2000/svg" viewBox="0 0 248.61 63.18"><defs><style>.cls-1{fill:#fff;}.cls-2{fill:#f0f;}</style></defs><title>Asset 3</title><g id="Layer_2" data-name="Layer 2"><g id="Layer_1-2" data-name="Layer 1"><path class="cls-1" d="M18.1,62.14A21.46,21.46,0,0,1,10.36,61a14,14,0,0,1-5.09-3.45C2.44,54.41,1,50.17,1,44.89l0-1.13A50.36,50.36,0,0,1,6.86,22,45.9,45.9,0,0,1,19.42,6.8C24.46,3,29.47,1,34.31,1a11.31,11.31,0,0,1,9.12,4,12.88,12.88,0,0,1,2.84,8.43A19.08,19.08,0,0,1,42,24.94a16.19,16.19,0,0,1-5.33,4.74,5.9,5.9,0,0,1-2.79.79,5.26,5.26,0,0,1-2.43-.56,6.79,6.79,0,0,1-1.84-1.32,5,5,0,0,1-1.7-3.35,2.83,2.83,0,0,1,1-2.42C32.94,20,35.67,17,37.07,14a7.22,7.22,0,0,0,.78-3.13c0-1.89-.72-2.66-2.48-2.66-3.33,0-6.87,1.89-10.51,5.63A44.88,44.88,0,0,0,16,27.31a41.07,41.07,0,0,0-4,15.23L12,44c0,5.28,1.07,8.76,3.19,10.32a4.06,4.06,0,0,0,2.48.75,11.13,11.13,0,0,0,3.11-.42,16.66,16.66,0,0,0,3-1.18A40.63,40.63,0,0,0,30.17,49a2.59,2.59,0,0,1,1.61-.64,2.18,2.18,0,0,1,1.85,1.13,4.87,4.87,0,0,1,.85,2.82,5.84,5.84,0,0,1-.79,3.53,11,11,0,0,1-2.2,2,18.85,18.85,0,0,1-3.65,2.08A24,24,0,0,1,18.1,62.14Z"/><path class="cls-2" d="M34.31,2a10.28,10.28,0,0,1,8.35,3.67,11.84,11.84,0,0,1,2.61,7.78,18,18,0,0,1-4,10.88,15.06,15.06,0,0,1-5,4.46,4.83,4.83,0,0,1-2.33.68,4.39,4.39,0,0,1-2-.45,6.1,6.1,0,0,1-1.59-1.13,4.18,4.18,0,0,1-1.4-2.65,1.91,1.91,0,0,1,.61-1.62q6.19-4.47,8.43-9.19a8.31,8.31,0,0,0,.87-3.55q0-3.66-3.48-3.66-5.44,0-11.23,5.93A45.67,45.67,0,0,0,15.08,26.9,41.68,41.68,0,0,0,11,42.51L11,44q0,8.5,3.59,11.15a5.07,5.07,0,0,0,3.08.94,12.4,12.4,0,0,0,3.39-.45,19.29,19.29,0,0,0,3.17-1.25,42.18,42.18,0,0,0,6.58-4.57,1.62,1.62,0,0,1,1-.42,1.26,1.26,0,0,1,1,.68,3.92,3.92,0,0,1,.68,2.27,5.19,5.19,0,0,1-.59,2.93,10.41,10.41,0,0,1-2,1.83,17.92,17.92,0,0,1-3.46,2,22.84,22.84,0,0,1-9.33,2.11A20.31,20.31,0,0,1,10.73,60,12.83,12.83,0,0,1,6,56.83Q2,52.45,2,44.89L2,43.8a49.2,49.2,0,0,1,5.7-21.36A44.82,44.82,0,0,1,20,7.59Q27.35,2,34.31,2m0-2C29.25,0,24,2,18.81,6A47.08,47.08,0,0,0,6,21.51,51.31,51.31,0,0,0,0,43.72l0,1.1v.07c0,5.53,1.52,10,4.53,13.29A14.74,14.74,0,0,0,10,61.88a21.84,21.84,0,0,0,8.11,1.26,24.91,24.91,0,0,0,10.14-2.29,20.09,20.09,0,0,0,3.85-2.19,11.85,11.85,0,0,0,2.4-2.23,6.75,6.75,0,0,0,1-4.13,5.87,5.87,0,0,0-1-3.41,3.15,3.15,0,0,0-2.66-1.54,3.58,3.58,0,0,0-2.22.84,39.87,39.87,0,0,1-6.25,4.37,16.33,16.33,0,0,1-2.81,1.1,10.37,10.37,0,0,1-2.84.38,3,3,0,0,1-1.89-.56C14,52.15,13,48.86,13,44l0-1.41A39.93,39.93,0,0,1,16.9,27.72a43.83,43.83,0,0,1,8.67-13.17C29,11,32.32,9.22,35.37,9.22c1.05,0,1.48.15,1.48,1.66a6.22,6.22,0,0,1-.68,2.69c-1.34,2.83-4,5.66-7.79,8.42a3.82,3.82,0,0,0-1.44,3.25,5.91,5.91,0,0,0,1.95,4l0,0,0,0A7.87,7.87,0,0,0,31,30.81a6.37,6.37,0,0,0,2.87.66,6.86,6.86,0,0,0,3.28-.92,16.91,16.91,0,0,0,5.63-5,20,20,0,0,0,4.45-12.09,13.86,13.86,0,0,0-3.06-9A12.25,12.25,0,0,0,34.31,0Z"/><path class="cls-1" d="M48.33,62.14c-3.34,0-5.66-1.39-6.92-4.14a7.8,7.8,0,0,1-.69-3.43,15.56,15.56,0,0,1,.66-4.23c.42-1.47.95-3,1.58-4.66s1.31-3.25,2-4.9L47,36c1.75-4.25,2.12-6,2.12-6.64a4,4,0,0,0-.2-1.71,2.33,2.33,0,0,0-.53-.58l-.74-.52a2,2,0,0,1-.8-1.75,3,3,0,0,1,.74-1.91,5.93,5.93,0,0,1,1.63-1.29,9.68,9.68,0,0,1,4.45-1c5.42,0,6.55,2.13,6.55,3.91a21.94,21.94,0,0,1-1.85,8.14c-1.18,2.92-2.21,5.3-3,7.1L53.06,45c-1.6,3.68-2.41,6.33-2.41,7.88,0,.55.11.66.67.66a4.74,4.74,0,0,0,2-.31A3.88,3.88,0,0,1,55,52.7c1,0,2,.6,2,2.28a6.49,6.49,0,0,1-1.79,4.17A8.6,8.6,0,0,1,48.33,62.14Zm9.79-46.21A5,5,0,0,1,56,15.45a6.25,6.25,0,0,1-2.13-1.66A6.83,6.83,0,0,1,52,9.33a6.22,6.22,0,0,1,.78-3.43A6.18,6.18,0,0,1,54.63,4a7.4,7.4,0,0,1,4-1.33A11.62,11.62,0,0,1,61.33,3a6,6,0,0,1,2,.9,4.57,4.57,0,0,1,2.28,3.87A8.62,8.62,0,0,1,65,11.1a8,8,0,0,1-1.53,2.37,7.77,7.77,0,0,1-2.16,1.64,7.36,7.36,0,0,1-2.58.79Z"/><path class="cls-2" d="M58.59,3.7a10.6,10.6,0,0,1,2.49.23,5,5,0,0,1,1.65.75,3.63,3.63,0,0,1,1.85,3.05,7.59,7.59,0,0,1-.51,3,7.22,7.22,0,0,1-1.34,2.08,7.29,7.29,0,0,1-1.89,1.44,6.55,6.55,0,0,1-2.23.68l-.49,0a4.07,4.07,0,0,1-1.72-.38,5.42,5.42,0,0,1-1.8-1.4A5.87,5.87,0,0,1,53,9.33a5.44,5.44,0,0,1,.62-2.89,5.34,5.34,0,0,1,1.57-1.57A6.38,6.38,0,0,1,58.59,3.7m-4.93,18q5.55,0,5.55,2.91a21,21,0,0,1-1.77,7.77c-1.19,2.91-2.19,5.26-3,7l-2.26,5.22q-2.51,5.74-2.5,8.28a1.48,1.48,0,0,0,1.67,1.66,5.59,5.59,0,0,0,2.45-.42A3.34,3.34,0,0,1,55,53.7c.66,0,1,.43,1,1.28a5.47,5.47,0,0,1-1.55,3.52,7.59,7.59,0,0,1-6.08,2.64c-2.92,0-4.93-1.18-6-3.55a6.92,6.92,0,0,1-.6-3,14.63,14.63,0,0,1,.62-4c.42-1.45.93-3,1.55-4.58s1.29-3.21,2-4.85l2-4.76q2.19-5.34,2.19-7a4.63,4.63,0,0,0-.36-2.25A3.09,3.09,0,0,0,49,26.3l-.75-.53a1,1,0,0,1-.38-.93,1.92,1.92,0,0,1,.51-1.26,4.69,4.69,0,0,1,1.34-1.06,8.6,8.6,0,0,1,4-.87M58.59,1.7a8.33,8.33,0,0,0-4.5,1.49,7.21,7.21,0,0,0-2.17,2.16,7.28,7.28,0,0,0-.94,4,7.8,7.8,0,0,0,2.11,5.12,7.14,7.14,0,0,0,2.45,1.91,6.07,6.07,0,0,0,2.58.57,5.9,5.9,0,0,0,.72,0A8.24,8.24,0,0,0,61.76,16a9,9,0,0,0,4.15-4.5,9.52,9.52,0,0,0,.67-3.77A5.54,5.54,0,0,0,63.85,3a7.2,7.2,0,0,0-2.27-1,12.59,12.59,0,0,0-3-.29Zm-4.93,18a10.63,10.63,0,0,0-4.88,1.09h-.05a6.81,6.81,0,0,0-1.91,1.53,3.94,3.94,0,0,0-1,2.55,3,3,0,0,0,1.23,2.57l.76.53h0a2.31,2.31,0,0,1,.18.22,5.35,5.35,0,0,1,.1,1.24c0,.3-.15,1.66-2,6.27l-2,4.74c-.73,1.62-1.42,3.29-2,4.91s-1.17,3.25-1.6,4.75a16.26,16.26,0,0,0-.7,4.5,8.92,8.92,0,0,0,.8,3.89c1,2.11,3.12,4.68,7.81,4.68a9.55,9.55,0,0,0,7.6-3.34A7.44,7.44,0,0,0,58,55a3,3,0,0,0-3-3.28,4.78,4.78,0,0,0-2.1.62,3.17,3.17,0,0,1-1.21.2c.09-1.08.59-3.17,2.31-7.13l2.26-5.2c.84-1.8,1.86-4.19,3-7.11a22.94,22.94,0,0,0,1.92-8.52c0-1.83-1-4.91-7.55-4.91Z"/><path class="cls-1" d="M93.41,62.14a11.69,11.69,0,0,1-3.5-.46,7.09,7.09,0,0,1-2.62-1.54,8.12,8.12,0,0,1-2.55-6.33c0-3,1-6.86,2.84-11.35,1.34-3,2.3-5.09,2.86-6.22l1.28-2.66a8.6,8.6,0,0,0,1.07-3.39c0-.12,0-.4-1.08-.4-.12,0-.83.1-2.6,1.94-1.41,1.47-2.65,2.84-3.7,4.06L82.2,39.64l-6.12,7.8c-1.43,2.71-2.56,5-3.37,6.78l-2,4.4a11.7,11.7,0,0,1-1.53,2.52,3,3,0,0,1-2.34,1,6.37,6.37,0,0,1-2.29-.42,6.92,6.92,0,0,1-1.88-1.09,4.43,4.43,0,0,1-1.8-3.42,6.3,6.3,0,0,1,.94-2.68l1.42-3c.46-.92,1-2.07,1.58-3.45l2.11-5.16c3.62-9.06,4.38-12.63,4.38-14a1.93,1.93,0,0,0-.72-1.76l-.74-.52A2,2,0,0,1,69,24.84a2.91,2.91,0,0,1,.75-1.91,5.78,5.78,0,0,1,1.63-1.29,8.52,8.52,0,0,1,3.9-1,8.34,8.34,0,0,1,3,.45,5.58,5.58,0,0,1,1.92,1.24,4.77,4.77,0,0,1,1.7,3.47,13.55,13.55,0,0,1-.39,3.13c-.22.88-.49,1.78-.81,2.68.2-.25.36-.47.51-.65l2.66-3.19a26.24,26.24,0,0,1,4.79-4.7c2.42-1.63,4.34-2.43,5.84-2.43a10.61,10.61,0,0,1,3.6.55,8.1,8.1,0,0,1,2.63,1.61,7.35,7.35,0,0,1,2.4,5.64,17.23,17.23,0,0,1-1.43,6.62c-.91,2.17-1.72,4-2.39,5.33S98,43.08,97.43,44.46c-1.83,4.07-2.75,7-2.75,8.78,0,.1.2.29,1,.29A5.15,5.15,0,0,0,98.15,53a5,5,0,0,1,2.14-.79A1.67,1.67,0,0,1,102.08,54c0,2.59-1.3,4.77-3.88,6.47A8.78,8.78,0,0,1,93.41,62.14Z"/><path class="cls-2" d="M94.51,21.65a9.34,9.34,0,0,1,3.25.49,7,7,0,0,1,2.3,1.4,6.39,6.39,0,0,1,2.08,4.91,16.11,16.11,0,0,1-1.36,6.24c-.9,2.17-1.69,3.92-2.36,5.27s-1.3,2.72-1.91,4.1q-2.83,6.31-2.83,9.18,0,1.29,2,1.29a6.19,6.19,0,0,0,2.89-.68,5.15,5.15,0,0,1,1.68-.68.7.7,0,0,1,.79.79q0,3.36-3.43,5.63a7.72,7.72,0,0,1-4.24,1.55,10.61,10.61,0,0,1-3.19-.41A6.13,6.13,0,0,1,88,59.4a7.11,7.11,0,0,1-2.23-5.59q0-4.38,2.76-11c1.34-3,2.28-5.05,2.84-6.16L92.62,34a9.58,9.58,0,0,0,1.17-3.82c0-.93-.69-1.4-2.08-1.4-.78,0-1.89.75-3.32,2.25s-2.68,2.87-3.74,4.1L81.43,39l-6.19,7.89c-1.46,2.78-2.61,5.08-3.44,6.92l-2,4.38a10.75,10.75,0,0,1-1.38,2.29,2,2,0,0,1-1.59.66,5.29,5.29,0,0,1-1.93-.36,5.93,5.93,0,0,1-1.6-.92,3.47,3.47,0,0,1-1.44-2.65A6.74,6.74,0,0,1,62.65,55l1.44-3.06c.45-.91,1-2.06,1.59-3.48l2.11-5.17q4.45-11.15,4.46-14.4a3,3,0,0,0-1.13-2.57l-.76-.53a1.06,1.06,0,0,1-.38-.93,1.92,1.92,0,0,1,.51-1.26,4.61,4.61,0,0,1,1.35-1.06A8,8,0,0,1,77.92,22a4.63,4.63,0,0,1,1.59,1,3.83,3.83,0,0,1,1.4,2.76,12,12,0,0,1-.36,2.89,30,30,0,0,1-.91,2.95c-.37,1-.75,2-1.15,2.93s-.77,1.78-1.1,2.49l-.76,1.62a2,2,0,0,0-.19.44l0-.06q4.2-5.82,5.52-7.48l2.65-3.17a25.71,25.71,0,0,1,4.57-4.5q3.36-2.27,5.29-2.27m0-2c-1.73,0-3.77.83-6.41,2.61a27,27,0,0,0-5,4.86l-.33.39a14,14,0,0,0,.11-1.7,5.76,5.76,0,0,0-2-4.2,6.8,6.8,0,0,0-2.24-1.44,9.24,9.24,0,0,0-3.4-.52,9.48,9.48,0,0,0-4.33,1.09h-.05A6.67,6.67,0,0,0,69,22.29a3.9,3.9,0,0,0-1,2.55,3,3,0,0,0,1.24,2.57l.75.53c.06,0,.28.2.28.93,0,1.07-.56,4.26-4.31,13.65l-2.12,5.17C63.25,49,62.74,50.15,62.3,51v0l-1.43,3a7.48,7.48,0,0,0-1,3.1A5.38,5.38,0,0,0,62,61.39a7.87,7.87,0,0,0,2.17,1.26,7.28,7.28,0,0,0,2.65.49,4,4,0,0,0,3.08-1.33,12.38,12.38,0,0,0,1.68-2.74l2.06-4.42c.8-1.77,1.91-4,3.31-6.66L83,40.25l3.19-3.83c1-1.19,2.26-2.54,3.65-4a7.85,7.85,0,0,1,1.87-1.59,11.25,11.25,0,0,1-.88,2.3l-1.29,2.69C89,36.93,88,39,86.67,42c-2,4.71-2.93,8.55-2.93,11.77a9.06,9.06,0,0,0,2.9,7.08,8,8,0,0,0,3,1.74,12.37,12.37,0,0,0,3.81.51,9.64,9.64,0,0,0,5.35-1.89c3.57-2.35,4.32-5.26,4.32-7.29a2.67,2.67,0,0,0-2.79-2.79,5.82,5.82,0,0,0-2.61.91,4.15,4.15,0,0,1-2,.45,29.79,29.79,0,0,1,2.61-7.65c.6-1.38,1.23-2.73,1.87-4s1.5-3.2,2.42-5.39a18.27,18.27,0,0,0,1.51-7,8.35,8.35,0,0,0-2.72-6.38,8.75,8.75,0,0,0-3-1.8,11.14,11.14,0,0,0-3.95-.62Z"/><path class="cls-1" d="M120.74,62.14a13.16,13.16,0,0,1-9.63-3.61c-2.71-2.72-4-6.43-3.84-11a25.33,25.33,0,0,1,1.14-6.56,31.43,31.43,0,0,1,2.61-6,36,36,0,0,1,3.83-5.48,31.05,31.05,0,0,1,4.79-4.55,19.21,19.21,0,0,1,11.53-4.25c4.73,0,7.94,2,9.54,6a11.73,11.73,0,0,1,.79,4.68,12.86,12.86,0,0,1-1,5,14.09,14.09,0,0,1-2.7,4.1,19.44,19.44,0,0,1-4,3.25,27.14,27.14,0,0,1-5,2.39,36.59,36.59,0,0,1-11,2c0,.18,0,.39,0,.64a9.34,9.34,0,0,0,.21,2.13,6,6,0,0,0,.77,2,3.34,3.34,0,0,0,3.08,1.8,15.21,15.21,0,0,0,8-2.42A11.84,11.84,0,0,0,132,50.48a3.38,3.38,0,0,1,2.31-1.22,2.38,2.38,0,0,1,2,1.28A4.37,4.37,0,0,1,137,52.9,6.54,6.54,0,0,1,135.7,57l0,0,0,.05C132.26,60.44,127.25,62.14,120.74,62.14Zm9.59-34.46c-2.28,0-4.56,1.68-6.8,5A38.83,38.83,0,0,0,119.14,42,17.39,17.39,0,0,0,128,37.51c2.62-2.5,4-4.89,4-7.09C131.94,27.68,130.86,27.68,130.33,27.68Z"/><path class="cls-2" d="M131.17,21.65c4.3,0,7.18,1.78,8.61,5.33a10.5,10.5,0,0,1,.72,4.29,12,12,0,0,1-.94,4.57A13.48,13.48,0,0,1,137,39.66a18.66,18.66,0,0,1-3.81,3.08,26.13,26.13,0,0,1-4.82,2.3,35.7,35.7,0,0,1-11.49,2,6.84,6.84,0,0,0-.19,1.59A10.26,10.26,0,0,0,117,51a6.89,6.89,0,0,0,.9,2.32,4.34,4.34,0,0,0,3.93,2.27A16.05,16.05,0,0,0,130.33,53a11.53,11.53,0,0,0,2.4-1.8,2.58,2.58,0,0,1,1.61-.92,1.44,1.44,0,0,1,1.19.81A3.36,3.36,0,0,1,136,52.9a5.56,5.56,0,0,1-1.13,3.48q-4.77,4.75-14.17,4.76a12.15,12.15,0,0,1-8.92-3.32Q108,54,108.27,47.54a24.59,24.59,0,0,1,1.09-6.29,29.9,29.9,0,0,1,2.53-5.82,33.39,33.39,0,0,1,3.73-5.33,29,29,0,0,1,4.62-4.41,18.19,18.19,0,0,1,10.93-4M117.71,43.23a18.36,18.36,0,0,0,11-5q4.28-4.08,4.27-7.82c0-2.5-.87-3.74-2.61-3.74q-4,0-7.63,5.44a40.87,40.87,0,0,0-5,11.11m13.46-23.58a20.18,20.18,0,0,0-12.12,4.44,31.42,31.42,0,0,0-5,4.71,36.14,36.14,0,0,0-3.94,5.64,33,33,0,0,0-2.7,6.21,26.25,26.25,0,0,0-1.18,6.8c-.17,4.91,1.22,8.87,4.13,11.78a14.11,14.11,0,0,0,10.34,3.91c6.79,0,12-1.8,15.58-5.35l.09-.09.08-.1A7.52,7.52,0,0,0,138,52.9a5.36,5.36,0,0,0-.81-2.89,3.35,3.35,0,0,0-2.89-1.75,4.31,4.31,0,0,0-3,1.51,10.08,10.08,0,0,1-2,1.49,14,14,0,0,1-7.53,2.29,2.34,2.34,0,0,1-2.21-1.3,4.81,4.81,0,0,1-.66-1.69,8.24,8.24,0,0,1-.19-1.61,37.28,37.28,0,0,0,10.34-2,27.76,27.76,0,0,0,5.2-2.49A20,20,0,0,0,138.5,41a15.15,15.15,0,0,0,2.89-4.38,13.89,13.89,0,0,0,1.11-5.34,12.65,12.65,0,0,0-.87-5.09c-1.21-3-4-6.56-10.46-6.56Zm-10.49,21a36.59,36.59,0,0,1,3.69-7.41c2-3,4-4.54,6-4.54.22,0,.61,0,.61,1.74,0,1.91-1.23,4.06-3.65,6.37a16.15,16.15,0,0,1-6.61,3.84Z"/><path class="cls-1" d="M192.63,62.14a9.58,9.58,0,0,1-3.44-.52A7,7,0,0,1,186.71,60a8.63,8.63,0,0,1-2.39-6.18,22,22,0,0,1,.87-6.33,48,48,0,0,1,2-5.46c.76-1.74,1.54-3.37,2.32-4.83s1.34-2.58,1.74-3.42a9.77,9.77,0,0,0,1.11-3.46c0-.37,0-.48-.55-.48-.26,0-1.79.31-6.54,6.38-2.64,3.46-4.5,6-5.52,7.5l-2.58,3.74c-1.43,2.73-2.55,5-3.3,6.79L172,58.6a11.92,11.92,0,0,1-1.38,2.5,2.77,2.77,0,0,1-2.26,1,6.82,6.82,0,0,1-2.15-.35,6.67,6.67,0,0,1-1.82-.95,3.94,3.94,0,0,1-1.86-3.12,11,11,0,0,1,.87-3.72c.55-1.43,1.24-3.06,2.05-4.84L170.7,38c2.38-5.23,2.74-6.94,2.74-7.48,0-.69-.19-.69-.55-.69-.53,0-2.29.59-7.28,6-2.86,3.26-5,5.75-6.26,7.39L156,47.44c-1.42,2.71-2.56,5-3.36,6.78l-2,4.4a11.27,11.27,0,0,1-1.54,2.52,3,3,0,0,1-2.33,1,6.37,6.37,0,0,1-2.29-.42,7,7,0,0,1-1.89-1.09,4.45,4.45,0,0,1-1.79-3.42,6.34,6.34,0,0,1,.93-2.67l1.43-3c.46-.92,1-2.07,1.57-3.45l2.11-5.16c3.63-9.06,4.39-12.63,4.39-14a1.93,1.93,0,0,0-.73-1.76l-.74-.52a2,2,0,0,1-.8-1.75,2.91,2.91,0,0,1,.75-1.91,5.73,5.73,0,0,1,1.62-1.29,9.08,9.08,0,0,1,7-.54,6.51,6.51,0,0,1,2,1.2A4.78,4.78,0,0,1,162,25.81a12.65,12.65,0,0,1-.41,3.14,28.36,28.36,0,0,1-1,3.05h0c1.7-2.18,2.81-3.56,3.34-4.17a35.45,35.45,0,0,1,4.68-4.75,10.62,10.62,0,0,1,6.26-2.44,6.57,6.57,0,0,1,5,2,7.09,7.09,0,0,1,1.87,5.08A15.31,15.31,0,0,1,181,32l1.65-2.18,3.13-3.74a17.55,17.55,0,0,1,5.26-4.38,9.5,9.5,0,0,1,3.88-1.08,8.38,8.38,0,0,1,3,.56,7,7,0,0,1,2.57,1.62,7.48,7.48,0,0,1,2.22,5.62,16,16,0,0,1-1.45,6.45c-.9,2.08-1.71,3.81-2.4,5.14s-1.31,2.6-2,4c-1.77,3.84-2.66,6.7-2.66,8.49,0,1,.32,1,.66,1a5.15,5.15,0,0,0,2.43-.57,5,5,0,0,1,2.14-.79,1.7,1.7,0,0,1,1.8,1.79c0,2.59-1.31,4.77-3.89,6.47A8.77,8.77,0,0,1,192.63,62.14Z"/><path class="cls-2" d="M194.94,21.65a7.39,7.39,0,0,1,2.64.49,6.19,6.19,0,0,1,2.21,1.4,6.48,6.48,0,0,1,1.93,4.91,15,15,0,0,1-1.36,6.05Q199,37.61,198,39.58c-.68,1.32-1.34,2.65-2,4-1.83,4-2.75,7-2.75,8.92,0,1.36.55,2,1.66,2a6.19,6.19,0,0,0,2.89-.68,5.15,5.15,0,0,1,1.68-.68.7.7,0,0,1,.8.79q0,3.36-3.44,5.63a7.72,7.72,0,0,1-4.22,1.55,8.75,8.75,0,0,1-3.08-.45,5.76,5.76,0,0,1-2.11-1.44,7.58,7.58,0,0,1-2.12-5.48,21,21,0,0,1,.83-6,47.32,47.32,0,0,1,2-5.35c.75-1.73,1.51-3.31,2.28-4.76s1.36-2.6,1.76-3.46a10.75,10.75,0,0,0,1.21-3.89c0-1-.52-1.48-1.55-1.48q-2,0-7.33,6.77-4,5.25-5.56,7.56l-2.6,3.77c-1.46,2.78-2.59,5.08-3.37,6.92L171,58.19a11.16,11.16,0,0,1-1.25,2.29,1.79,1.79,0,0,1-1.48.66,5.66,5.66,0,0,1-1.83-.3,5.52,5.52,0,0,1-1.53-.79,3,3,0,0,1-1.47-2.33,10.19,10.19,0,0,1,.81-3.36c.54-1.42,1.22-3,2-4.78l5.29-11.19c1.89-4.16,2.84-6.79,2.84-7.91s-.52-1.69-1.55-1.69c-1.46,0-4.14,2.12-8,6.35q-4.35,4.95-6.32,7.45l-3.4,4.3c-1.46,2.78-2.61,5.08-3.44,6.92l-2,4.38a10.75,10.75,0,0,1-1.38,2.29,2,2,0,0,1-1.58.66,5.29,5.29,0,0,1-1.93-.36,6,6,0,0,1-1.61-.92,3.48,3.48,0,0,1-1.43-2.65,6.51,6.51,0,0,1,.83-2.23L144,51.92c.46-.91,1-2.06,1.59-3.48l2.12-5.17q4.46-11.15,4.46-14.4A3,3,0,0,0,151,26.3l-.75-.53a1.06,1.06,0,0,1-.38-.93,1.92,1.92,0,0,1,.51-1.26,4.69,4.69,0,0,1,1.34-1.06,7.48,7.48,0,0,1,3.42-.87,7.75,7.75,0,0,1,2.7.38,5.24,5.24,0,0,1,1.7,1A3.78,3.78,0,0,1,161,25.81a11.53,11.53,0,0,1-.38,2.89,27.86,27.86,0,0,1-.94,2.95c-.38,1-.78,2-1.21,2.89-1,2.16-1.63,3.49-1.87,4s-.28.59-.25.59l0,0q6.92-9,8.31-10.58a35.84,35.84,0,0,1,4.54-4.61,9.57,9.57,0,0,1,5.65-2.23,5.63,5.63,0,0,1,4.25,1.66,6.09,6.09,0,0,1,1.59,4.39,16.42,16.42,0,0,1-1.21,5.59q-1.22,3.21-1.63,4.5l5.56-7.33,3.1-3.71a16.77,16.77,0,0,1,4.91-4.12,8.78,8.78,0,0,1,3.46-1M176.7,39.34a.2.2,0,0,0-.07.11,0,0,0,0,0,0,0l0-.07m18.24-19.69a10.43,10.43,0,0,0-4.3,1.17,18.38,18.38,0,0,0-5.57,4.6l0,0,0,0-2.29,2.74c0-.17,0-.34,0-.51a8.05,8.05,0,0,0-2.14-5.77,7.58,7.58,0,0,0-5.7-2.28,11.54,11.54,0,0,0-6.85,2.63,37.65,37.65,0,0,0-4.85,4.9l-.31.37a12.83,12.83,0,0,0,.12-1.74,5.69,5.69,0,0,0-2.08-4.23,7.53,7.53,0,0,0-2.34-1.42,9.67,9.67,0,0,0-3.42-.51,9.51,9.51,0,0,0-4.33,1.09h0a6.81,6.81,0,0,0-1.91,1.53,3.94,3.94,0,0,0-1,2.55,3,3,0,0,0,1.24,2.57l.75.53c.06,0,.28.2.28.93,0,1.07-.56,4.27-4.32,13.65l-2.11,5.17c-.57,1.33-1.09,2.46-1.52,3.34l0,0v0l-1.43,3.06a7.35,7.35,0,0,0-1,3.08,5.38,5.38,0,0,0,2.15,4.18,7.72,7.72,0,0,0,2.17,1.26,7.24,7.24,0,0,0,2.65.49,4,4,0,0,0,3.08-1.33,12.14,12.14,0,0,0,1.68-2.74l2.06-4.42c.8-1.77,1.91-4,3.31-6.66l3.28-4.16c1.28-1.63,3.38-4.11,6.25-7.37,3.38-3.69,5.15-5,6-5.43a40.64,40.64,0,0,1-2.56,6.53L164.5,48.72c-.83,1.82-1.52,3.47-2.08,4.93a12,12,0,0,0-.94,4.07,4.85,4.85,0,0,0,2.28,3.93,7.16,7.16,0,0,0,2.08,1.08,7.66,7.66,0,0,0,2.47.41,3.81,3.81,0,0,0,3-1.41A12.7,12.7,0,0,0,172.86,59l1.93-4.38c.75-1.77,1.84-4,3.25-6.69l2.54-3.68c1-1.52,2.87-4,5.5-7.48a31.31,31.31,0,0,1,5.09-5.54,18.05,18.05,0,0,1-.83,2.1c-.38.8-1,1.94-1.7,3.35s-1.58,3.14-2.35,4.9a48.08,48.08,0,0,0-2,5.57,22.93,22.93,0,0,0-.92,6.62A9.53,9.53,0,0,0,186,60.64a7.8,7.8,0,0,0,2.83,1.91,10.42,10.42,0,0,0,3.8.59A9.64,9.64,0,0,0,198,61.25c3.57-2.35,4.33-5.26,4.33-7.29a2.67,2.67,0,0,0-2.8-2.79,5.82,5.82,0,0,0-2.61.91,4.15,4.15,0,0,1-1.62.44v0c0-1.13.44-3.45,2.57-8.09.63-1.32,1.28-2.64,1.93-3.9s1.51-3.1,2.43-5.2a16.92,16.92,0,0,0,1.53-6.85,8.44,8.44,0,0,0-2.54-6.35,8.07,8.07,0,0,0-2.89-1.83,9.54,9.54,0,0,0-3.35-.62Z"/><path class="cls-1" d="M236,62.18a9,9,0,0,1-2.82-.47,7.12,7.12,0,0,1-4.24-4.31,9,9,0,0,1-.64-2.84A19.2,19.2,0,0,1,221.38,61a10.64,10.64,0,0,1-4.88,1.17,9.29,9.29,0,0,1-4.56-1.09,10,10,0,0,1-3.25-3,15.27,15.27,0,0,1-2.41-9.54,28.93,28.93,0,0,1,4.1-13.64,31.81,31.81,0,0,1,9-10.18c3.65-2.7,7.16-4.08,10.41-4.08a9.21,9.21,0,0,1,7.32,3.46c1.65-2.35,3.15-3.46,4.66-3.46a6.43,6.43,0,0,1,3.84,1c2.3,1.68,2.23,3.06,1.76,3.93-6.21,12.74-9.46,20.75-9.63,23.77a12.88,12.88,0,0,0-.07,1.38c0,2.48,1,2.48,1.46,2.48a5.72,5.72,0,0,0,2.38-.43,4.65,4.65,0,0,1,1.92-.63A1.7,1.7,0,0,1,245.2,54c0,2.51-1.29,4.67-3.84,6.42A9.45,9.45,0,0,1,236,62.18Zm-5.7-34.62a5.82,5.82,0,0,0-2.65.86,14.21,14.21,0,0,0-3.25,2.51,22.22,22.22,0,0,0-3,3.85,31.07,31.07,0,0,0-2.47,4.89,30.41,30.41,0,0,0-2.24,11.19c0,3.54,1.39,3.54,1.91,3.54.81,0,2.29-.6,4.73-3.43a51.2,51.2,0,0,0,8.25-14.68,53.19,53.19,0,0,0,1.89-5.63,3.4,3.4,0,0,0-1.66-2.82A2.87,2.87,0,0,0,230.27,27.56Z"/><path class="cls-2" d="M241.74,21.65a5.58,5.58,0,0,1,3.25.79c1.39,1,1.88,1.89,1.47,2.65Q237,44.52,236.71,49.28a13,13,0,0,0-.07,1.43q0,3.48,2.46,3.48a6.58,6.58,0,0,0,2.81-.53,4.69,4.69,0,0,1,1.49-.53.72.72,0,0,1,.8.83q0,3.26-3.41,5.59A8.41,8.41,0,0,1,236,61.18a7.91,7.91,0,0,1-2.51-.42A6.13,6.13,0,0,1,229.84,57a7.47,7.47,0,0,1-.57-2.68,23.74,23.74,0,0,1,.38-4.16q-3.53,7.18-8.73,9.9a9.57,9.57,0,0,1-4.42,1.06,8.22,8.22,0,0,1-4.07-1,8.83,8.83,0,0,1-2.92-2.67,14.12,14.12,0,0,1-2.23-8.91,28,28,0,0,1,4-13.19,30.93,30.93,0,0,1,8.7-9.87q5.25-3.88,9.82-3.89a8.5,8.5,0,0,1,7.37,4.2c1.74-2.8,3.27-4.2,4.61-4.2M218.57,55.4q2.24,0,5.48-3.78a51.51,51.51,0,0,0,8.43-15,54.27,54.27,0,0,0,2-5.89A4.43,4.43,0,0,0,232.29,27a3.9,3.9,0,0,0-2-.42,6.76,6.76,0,0,0-3.14,1,15.21,15.21,0,0,0-3.47,2.68,23.06,23.06,0,0,0-3.14,4,31.81,31.81,0,0,0-2.55,5,31.14,31.14,0,0,0-2.31,11.56q0,4.55,2.91,4.54m23.17-35.75c-1.61,0-3.15.93-4.74,2.91a10,10,0,0,0-7.24-2.91c-3.47,0-7.18,1.44-11,4.29a32.9,32.9,0,0,0-9.23,10.48,29.92,29.92,0,0,0-4.23,14.11,16.2,16.2,0,0,0,2.58,10.12,10.88,10.88,0,0,0,3.6,3.27,10.14,10.14,0,0,0,5,1.22,11.68,11.68,0,0,0,5.32-1.27A19.11,19.11,0,0,0,227.7,57c.08.25.17.5.27.76a8.12,8.12,0,0,0,4.83,4.91,9.9,9.9,0,0,0,3.17.53,10.39,10.39,0,0,0,5.95-2c2.84-2,4.28-4.38,4.28-7.24a2.69,2.69,0,0,0-2.8-2.83,5.64,5.64,0,0,0-2.35.72,4.55,4.55,0,0,1-2,.34.52.52,0,0,1-.23,0,2.91,2.91,0,0,1-.23-1.45,11.53,11.53,0,0,1,.06-1.21v-.11c.11-2,1.86-7.66,9.54-23.4.52-1,.91-3-2.08-5.16a7.3,7.3,0,0,0-4.43-1.18ZM218.57,53.4c-.24,0-.91,0-.91-2.54a30.27,30.27,0,0,1,4.56-15.54,20.38,20.38,0,0,1,2.86-3.68,13.35,13.35,0,0,1,3-2.34,4.83,4.83,0,0,1,2.18-.74,2.5,2.5,0,0,1,1,.13,2.34,2.34,0,0,1,1.16,1.89,53.25,53.25,0,0,1-1.8,5.34,50.23,50.23,0,0,1-8.08,14.4c-2.53,2.93-3.75,3.08-4,3.08Z"/></g></g></svg>