<svg xmlns="http://www.w3.org/2000/svg" viewBox="0 0 333.19 59.14"><defs><style>.cls-1{fill:#f7931e;}</style></defs><title>Asset 1</title><g id="Layer_2" data-name="Layer 2"><g id="Layer_1-2" data-name="Layer 1"><path class="cls-1" d="M76.15,51.13c.63,0,.94.45.94,1.34a4.41,4.41,0,0,1-.49,2.21,9.68,9.68,0,0,1-1.13,1.59,8.1,8.1,0,0,1-1.63,1.36A8.69,8.69,0,0,1,69,59.14a10.9,10.9,0,0,1-4-.62,7.11,7.11,0,0,1-2.59-1.87A10.44,10.44,0,0,1,60,49.43a47.91,47.91,0,0,1,1.89-12q1.89-7.08,3.65-12.13t3.61-9.62L72.56,7q-5.59,5-14.17,21.12L49.24,45.46Q41.91,59.14,38.77,59.14a4.16,4.16,0,0,1-4.19-2.64q-1-2.53-1-8.6a68.57,68.57,0,0,1,1-11.64q1-5.58,2.44-10.9A132.65,132.65,0,0,1,43.61,6.69q-4,2.23-8.81,9.94-3.7,6.15-5.21,9l-9.75,18q-6.09,11.07-9.79,13.68a9.83,9.83,0,0,1-5.78,1.89A4.34,4.34,0,0,1,.45,57.48,2.3,2.3,0,0,1,0,56.23c0-.38.11-.6.34-.68a11,11,0,0,0,3.31-1.34c.64-.47,1.28-.94,1.9-1.44a18.1,18.1,0,0,0,2.76-3.13q1.81-2.4,3.93-5.78t4.43-7.58l4.79-8.84q6.66-12.85,13.91-20.6a24.06,24.06,0,0,1,5.07-4.27A14.28,14.28,0,0,1,46.22.19a7.08,7.08,0,0,1,3.42,0,5.1,5.1,0,0,1,1.68.71,2.37,2.37,0,0,1,1,3c-.2.75-.59,1.89-1.17,3.4l-2,5.4q-7.14,19.73-7.82,35.9,2-3.44,4-7.52l4.27-8.42,4.5-8.58Q64.47,4.88,73.39,2.08a10.48,10.48,0,0,1,3.1-.61,4.78,4.78,0,0,1,2,.33,5,5,0,0,1,1.29.81,2.28,2.28,0,0,1,.9,2.47C80.37,5.93,80,7,79.55,8.31l-5.48,16-2,6.27a100,100,0,0,0-3.85,16.71,6.59,6.59,0,0,0,.55,3.83,2.35,2.35,0,0,0,2.13,1.38,8.57,8.57,0,0,0,2.14-.21,8.31,8.31,0,0,0,1.34-.47l1-.45A1.64,1.64,0,0,1,76.15,51.13Z"/><path class="cls-1" d="M86.54,56.19A10.41,10.41,0,0,1,84,52.36a15.61,15.61,0,0,1-.94-5.5,24.52,24.52,0,0,1,.78-6.42,30.93,30.93,0,0,1,2.3-6.28,31.71,31.71,0,0,1,3.59-5.67,27.28,27.28,0,0,1,4.63-4.61,18.59,18.59,0,0,1,11.45-4.23q7.79,0,10.54,6.84,2,4.95.23,12a31.2,31.2,0,0,1-5.82,11.87A23.49,23.49,0,0,1,100.9,58a15.46,15.46,0,0,1-5.65,1.13,15.72,15.72,0,0,1-5-.72A9.73,9.73,0,0,1,86.54,56.19Zm7.22-18.32A36,36,0,0,0,92,43.61a23.64,23.64,0,0,0-.62,5.57,9.19,9.19,0,0,0,.81,4.12,2.62,2.62,0,0,0,2.51,1.5,5.89,5.89,0,0,0,3.42-1.19,16.91,16.91,0,0,0,3.27-3.16,29.89,29.89,0,0,0,3-4.53,43.49,43.49,0,0,0,2.45-5.37A29.63,29.63,0,0,0,109,29.74c0-2.77-.56-4.53-1.7-5.29a3.42,3.42,0,0,0-1.9-.45,5.14,5.14,0,0,0-2.82,1.11,16.6,16.6,0,0,0-3.17,3,31.88,31.88,0,0,0-3.07,4.42A41.09,41.09,0,0,0,93.76,37.87Z"/><path class="cls-1" d="M123,55.1a7.06,7.06,0,0,1-.57-3,15.36,15.36,0,0,1,.53-3.76,38,38,0,0,1,1.36-4.21c.56-1.44,1.17-2.9,1.85-4.39l1.93-4.38q3.74-8.65,2.76-10.2a4.73,4.73,0,0,0-1.74-1.44,1,1,0,0,1-.42-.93,1.88,1.88,0,0,1,.55-1.26,4.92,4.92,0,0,1,1.46-1.06,8.39,8.39,0,0,1,3.66-.87,7.6,7.6,0,0,1,2.82.4,5.25,5.25,0,0,1,1.61,1,4.2,4.2,0,0,1,1.2,3,13.68,13.68,0,0,1-.68,4c-.45,1.48-1,3.05-1.7,4.68s-1.42,3.32-2.23,5l-2.23,5c-1.58,3.65-2.38,6.07-2.38,7.26,0,2.31.82,3.47,2.46,3.47q6.31,0,11.83-7.48a28.45,28.45,0,0,0,4.61-9.45,17.18,17.18,0,0,0,.64-4.4c0-1.32,0-2.42-.13-3.31a12.19,12.19,0,0,0-.44-2.34,7.66,7.66,0,0,0-1.66-3.14c-.53-.65-.29-1.42.72-2.3a7.15,7.15,0,0,1,4.72-1.4,4.2,4.2,0,0,1,3.33,1.78,9,9,0,0,1,1.81,6.06,26.14,26.14,0,0,1-1.17,7.75,34.7,34.7,0,0,1-3.21,7.29,37.62,37.62,0,0,1-4.82,6.52,35.51,35.51,0,0,1-6,5.25q-6.87,4.85-13.75,4.84Q124.74,59.14,123,55.1Z"/><path class="cls-1" d="M175,51.7c.65,0,1,.43,1,1.28a5.52,5.52,0,0,1-1.55,3.52,7.61,7.61,0,0,1-6.09,2.64q-4.38,0-6-3.55a6.78,6.78,0,0,1-.61-3,14.63,14.63,0,0,1,.62-4q.63-2.17,1.55-4.58c.62-1.6,1.3-3.21,2-4.85l2-4.76q2.19-5.34,2.19-7a4.63,4.63,0,0,0-.36-2.25,3.23,3.23,0,0,0-.77-.85l-.76-.53a1.06,1.06,0,0,1-.38-.93,1.92,1.92,0,0,1,.51-1.26,4.69,4.69,0,0,1,1.34-1.06,8.63,8.63,0,0,1,4-.87q5.56,0,5.56,2.91a20.87,20.87,0,0,1-1.78,7.77q-1.77,4.37-3,7l-2.27,5.22q-2.49,5.74-2.49,8.28a1.47,1.47,0,0,0,1.66,1.66,5.67,5.67,0,0,0,2.46-.42A3.23,3.23,0,0,1,175,51.7Zm7.74-40.91a7,7,0,0,1-1.89,1.44,6.49,6.49,0,0,1-2.23.68,4.18,4.18,0,0,1-2.21-.36,5.28,5.28,0,0,1-1.79-1.4A5.83,5.83,0,0,1,173,7.33a5.34,5.34,0,0,1,.63-2.89,5.19,5.19,0,0,1,1.56-1.57,6.38,6.38,0,0,1,3.42-1.17,10.7,10.7,0,0,1,2.5.23,5,5,0,0,1,1.64.75,3.61,3.61,0,0,1,1.85,3.05,7.59,7.59,0,0,1-.51,3A7,7,0,0,1,182.75,10.79Z"/><path class="cls-1" d="M184.87,45.54A24.59,24.59,0,0,1,186,39.25a30,30,0,0,1,2.54-5.82,32.69,32.69,0,0,1,3.72-5.33,28.68,28.68,0,0,1,4.63-4.41,18.14,18.14,0,0,1,10.92-4q6.47,0,8.61,5.33a10.5,10.5,0,0,1,.72,4.29,11.84,11.84,0,0,1-.94,4.57,13.45,13.45,0,0,1-2.51,3.82,19,19,0,0,1-3.82,3.08A26.13,26.13,0,0,1,205,43a35.7,35.7,0,0,1-11.49,2,7.44,7.44,0,0,0-.19,1.59,10.26,10.26,0,0,0,.23,2.36,6.9,6.9,0,0,0,.91,2.32,4.32,4.32,0,0,0,3.93,2.27A16.08,16.08,0,0,0,206.94,51a12.09,12.09,0,0,0,2.4-1.8,2.54,2.54,0,0,1,1.6-.92,1.43,1.43,0,0,1,1.19.81,3.36,3.36,0,0,1,.51,1.83,5.5,5.5,0,0,1-1.13,3.48q-4.75,4.75-14.17,4.76a12.16,12.16,0,0,1-8.92-3.32Q184.64,52,184.87,45.54Zm22.07-20.86q-4,0-7.64,5.44a41.17,41.17,0,0,0-5,11.11,18.39,18.39,0,0,0,11-5q4.26-4.08,4.26-7.82C209.54,25.92,208.68,24.68,206.94,24.68Z"/><path class="cls-1" d="M222.58,53.17a13.44,13.44,0,0,1-.71-5.12,47.55,47.55,0,0,1,.85-7.24,68.2,68.2,0,0,1,2.36-9.07,70.35,70.35,0,0,1,10-19.84,3,3,0,0,1,2.29-1.47,5.58,5.58,0,0,1,2.34.53,9.27,9.27,0,0,1,2,1.25c1.46,1.21,1.93,2.19,1.43,2.94q-5.32,8.55-8.73,15.42a28.14,28.14,0,0,0,15.12-5.44q7.14-5.25,7.14-12.77,0-5.1-5.06-6.5a14.31,14.31,0,0,0-3.69-.42,23.64,23.64,0,0,0-4.42.44,28.77,28.77,0,0,0-4.4,1.19,31.1,31.1,0,0,0-7.67,4.08,3.16,3.16,0,0,1-1.82.72,4.51,4.51,0,0,1-1.81-.44,6.91,6.91,0,0,1-1.74-1.08q-3-2.49.83-5.17,5.48-3.85,16.18-5C244.4.06,246.18,0,248.41,0a22.82,22.82,0,0,1,6.84,1.1A15.6,15.6,0,0,1,260.87,4q3.88,3.48,3.89,9.68,0,5.59-4.42,11a30.51,30.51,0,0,1-10.43,8.17,10,10,0,0,1,4.59,3.79A9.24,9.24,0,0,1,256,42a13.66,13.66,0,0,1-1.11,5.17,15.54,15.54,0,0,1-2.8,4.27A19.49,19.49,0,0,1,248,54.78a26.4,26.4,0,0,1-4.89,2.4,30.26,30.26,0,0,1-10.66,2Q224.81,59.14,222.58,53.17Zm9.15-16.48a37,37,0,0,0-3,12.44A5.19,5.19,0,0,0,230,53.08a4.91,4.91,0,0,0,3.69,1.38,12.71,12.71,0,0,0,4.83-1,17.52,17.52,0,0,0,4.58-2.76q4.76-4,4.91-9.07a6,6,0,0,0-4.16-6.28,11.13,11.13,0,0,0-2.76-.64,25.21,25.21,0,0,0-5,.91C234,36.15,232.51,36.52,231.73,36.69Z"/><path class="cls-1" d="M267.21,56.19a10.27,10.27,0,0,1-2.49-3.83,15.6,15.6,0,0,1-1-5.5,25.4,25.4,0,0,1,.78-6.42,31.53,31.53,0,0,1,2.3-6.28,32.87,32.87,0,0,1,3.59-5.67,27.28,27.28,0,0,1,4.63-4.61,18.61,18.61,0,0,1,11.45-4.23q7.78,0,10.55,6.84,2,4.95.22,12a31.06,31.06,0,0,1-5.82,11.87,23.37,23.37,0,0,1-9.9,7.67,15.38,15.38,0,0,1-5.65,1.13,15.72,15.72,0,0,1-4.95-.72A9.73,9.73,0,0,1,267.21,56.19Zm7.22-18.32a36,36,0,0,0-1.79,5.74,23.68,23.68,0,0,0-.63,5.57,9.32,9.32,0,0,0,.82,4.12,2.61,2.61,0,0,0,2.51,1.5,5.89,5.89,0,0,0,3.42-1.19A16.91,16.91,0,0,0,282,50.45a30.64,30.64,0,0,0,3-4.53,45.07,45.07,0,0,0,2.46-5.37,29.84,29.84,0,0,0,2.23-10.81q0-4.15-1.7-5.29a3.46,3.46,0,0,0-1.91-.45,5.14,5.14,0,0,0-2.82,1.11,17.21,17.21,0,0,0-3.17,3A31,31,0,0,0,277,32.54,42.47,42.47,0,0,0,274.43,37.87Z"/><path class="cls-1" d="M325.49,48.86c.73,0,1.09.49,1.09,1.48a4.4,4.4,0,0,1-.75,2.41,10.57,10.57,0,0,1-4.09,4.16,12.78,12.78,0,0,1-7,2.23q-6.08,0-7.71-5.44-1.92-6.47,5.79-27.4-4.35-.37-4.73-1.51a2.5,2.5,0,0,1-.11-.74,1.71,1.71,0,0,1,.36-.92,5.73,5.73,0,0,1,.92-1A4.23,4.23,0,0,1,312,21h3q4.08-9.56,5.82-10.88a3.11,3.11,0,0,1,1.85-.61,4.62,4.62,0,0,1,1.7.27,3.68,3.68,0,0,1,1.21.75,3.41,3.41,0,0,1,1.21,2.54,4.23,4.23,0,0,1-.45,1.73l-2.8,6.09h.91c1.56,0,2.82,0,3.78,0l2.15,0c.48,0,1.08,0,1.8,0s1.07.27,1.07.8q0,5-11.79,5h-.3l-2.57,6.65Q314.18,45,314.19,49.73a3.18,3.18,0,0,0,.6,2.06,2.83,2.83,0,0,0,2.27.74,7.74,7.74,0,0,0,3-.57,13.56,13.56,0,0,0,2.38-1.26c.68-.47,1.27-.89,1.76-1.27A2.21,2.21,0,0,1,325.49,48.86Z"/></g></g></svg>