<svg xmlns="http://www.w3.org/2000/svg" xmlns:xlink="http://www.w3.org/1999/xlink" viewBox="0 0 658 86.37"><defs><style>.cls-1{fill:url(#linear-gradient);}.cls-2{fill:#00bdff;}.cls-3{fill:url(#linear-gradient-2);}.cls-4{fill:url(#linear-gradient-3);}.cls-5{fill:url(#linear-gradient-4);}.cls-6{fill:url(#linear-gradient-5);}.cls-7{fill:url(#linear-gradient-6);}.cls-8{fill:url(#linear-gradient-7);}.cls-9{fill:url(#linear-gradient-8);}</style><linearGradient id="linear-gradient" x1="59.75" y1="12.53" x2="59.75" y2="90.61" gradientUnits="userSpaceOnUse"><stop offset="0" stop-color="#a9b8b6"/><stop offset="0.39" stop-color="#fff"/><stop offset="0.62" stop-color="#f37fff"/><stop offset="1" stop-color="#a9b8b6"/></linearGradient><linearGradient id="linear-gradient-2" x1="169.87" y1="11.76" x2="169.87" y2="90.67" xlink:href="#linear-gradient"/><linearGradient id="linear-gradient-3" x1="257.72" y1="11.76" x2="257.72" y2="90.67" xlink:href="#linear-gradient"/><linearGradient id="linear-gradient-4" x1="316.39" y1="12.72" x2="316.39" y2="90.59" xlink:href="#linear-gradient"/><linearGradient id="linear-gradient-5" x1="372.87" y1="11.76" x2="372.87" y2="90.67" xlink:href="#linear-gradient"/><linearGradient id="linear-gradient-6" x1="465.04" y1="12.53" x2="465.04" y2="90.61" xlink:href="#linear-gradient"/><linearGradient id="linear-gradient-7" x1="559.73" y1="11.76" x2="559.73" y2="90.67" xlink:href="#linear-gradient"/><linearGradient id="linear-gradient-8" x1="630.69" y1="12.54" x2="630.69" y2="90.67" xlink:href="#linear-gradient"/></defs><title>Asset 2</title><g id="Layer_2" data-name="Layer 2"><g id="Layer_1-2" data-name="Layer 1"><path class="cls-1" d="M103.14,84.87A3.54,3.54,0,0,1,99.28,81V25.66h-.35L77.36,73.51a33.2,33.2,0,0,1-2.74,5.08,17,17,0,0,1-3.18,3.58,10.71,10.71,0,0,1-4.09,2.11,19.37,19.37,0,0,1-5,.59H57.18a19.43,19.43,0,0,1-5-.59,10.71,10.71,0,0,1-4.09-2.11,16.64,16.64,0,0,1-3.17-3.58,32.85,32.85,0,0,1-2.75-5.09L20.56,25.66h-.35V81a3.54,3.54,0,0,1-3.85,3.86H5.46A3.59,3.59,0,0,1,1.5,81V19.67c0-4.44.73-7.55,2.23-9.51s4.47-3.1,8.78-3.1H24.16a24,24,0,0,1,4.34.34,9.15,9.15,0,0,1,3.58,1.48,10.55,10.55,0,0,1,2.68,2.86A26.83,26.83,0,0,1,37,16.1L59.2,67.38c0,.05,0,.06.12.06h1.4L83,16.08a27,27,0,0,1,2.21-4.34,10.55,10.55,0,0,1,2.68-2.86A9.13,9.13,0,0,1,91.36,7.4a23.19,23.19,0,0,1,4.3-.34h11.43c4.18,0,7.1,1,8.67,3.1S118,15.23,118,19.67V81A3.58,3.58,0,0,1,114,84.87Z"/><path class="cls-2" d="M107.09,8.56c3.7,0,6.2.84,7.48,2.51s1.92,4.54,1.92,8.6V81A2.13,2.13,0,0,1,114,83.37h-10.9A2.09,2.09,0,0,1,100.78,81V25.23c0-.71-.28-1.07-.85-1.07H99a1.33,1.33,0,0,0-1.39.85L76,72.89a30.75,30.75,0,0,1-2.62,4.86A15.21,15.21,0,0,1,70.49,81,9.15,9.15,0,0,1,67,82.83a17.79,17.79,0,0,1-4.65.54H57.18a17.79,17.79,0,0,1-4.65-.54A9,9,0,0,1,49,81a15,15,0,0,1-2.89-3.26,31.59,31.59,0,0,1-2.62-4.86L21.92,25a1.34,1.34,0,0,0-1.39-.85h-1c-.57,0-.85.36-.85,1.07V81a2.09,2.09,0,0,1-2.35,2.36H5.46C3.82,83.37,3,82.58,3,81V19.67q0-6.09,1.92-8.6C6.21,9.4,8.73,8.56,12.51,8.56H24.16a21.77,21.77,0,0,1,4.06.32,7.34,7.34,0,0,1,3,1.23,8.91,8.91,0,0,1,2.3,2.45,26.39,26.39,0,0,1,2.09,4.12L57.82,68a1.52,1.52,0,0,0,1.5,1H60.6a1.52,1.52,0,0,0,1.5-1l22.23-51.3a25.6,25.6,0,0,1,2.08-4.12,8.91,8.91,0,0,1,2.3-2.45,7.3,7.3,0,0,1,2.94-1.23,20.91,20.91,0,0,1,4-.32h11.43m0-3H95.66a24.37,24.37,0,0,0-4.58.37A10.43,10.43,0,0,0,87,7.66a12.05,12.05,0,0,0-3.08,3.26,28.75,28.75,0,0,0-2.34,4.61L60,65.36,38.35,15.49A28.27,28.27,0,0,0,36,10.92,12.18,12.18,0,0,0,33,7.66a10.45,10.45,0,0,0-4.18-1.73,25.08,25.08,0,0,0-4.61-.37H12.51c-4.81,0-8.07,1.2-10,3.68C.83,11.48,0,14.89,0,19.67V81a5.07,5.07,0,0,0,5.46,5.36h10.9A5.07,5.07,0,0,0,21.71,81V31.86L40.77,74.13a34.94,34.94,0,0,0,2.87,5.31,18.54,18.54,0,0,0,3.46,3.89,12.28,12.28,0,0,0,4.65,2.4,21.07,21.07,0,0,0,5.43.64h5.13a21.21,21.21,0,0,0,5.44-.64,12.43,12.43,0,0,0,4.65-2.4,18.63,18.63,0,0,0,3.46-3.9,35.49,35.49,0,0,0,2.87-5.32l19-42.25V81a5.08,5.08,0,0,0,5.36,5.36H114A5.07,5.07,0,0,0,119.49,81V19.67c0-4.78-.83-8.19-2.54-10.43-1.87-2.44-5.19-3.68-9.86-3.68Z"/><path class="cls-3" d="M154.75,84.87a54.23,54.23,0,0,1-12.48-1.22,19.42,19.42,0,0,1-8.45-4.13,16.22,16.22,0,0,1-4.65-7.41,34.93,34.93,0,0,1-1.35-10.33V46.39a34.93,34.93,0,0,1,1.35-10.33,16.16,16.16,0,0,1,4.65-7.41,19.77,19.77,0,0,1,8.43-4.18,52,52,0,0,1,12.5-1.28H185a52.17,52.17,0,0,1,12.44,1.28,19.75,19.75,0,0,1,8.48,4.18,16.1,16.1,0,0,1,4.66,7.41,34.93,34.93,0,0,1,1.35,10.33V61.78a35,35,0,0,1-1.35,10.33,16.15,16.15,0,0,1-4.66,7.41,19.4,19.4,0,0,1-8.5,4.13A54.28,54.28,0,0,1,185,84.87Zm1.5-46.07a23.58,23.58,0,0,0-5.32.5,5.65,5.65,0,0,0-2.85,1.5,6.35,6.35,0,0,0-1.49,2.94A23.56,23.56,0,0,0,146.1,49V59.11a24.09,24.09,0,0,0,.49,5.31,6,6,0,0,0,1.47,2.87,6.23,6.23,0,0,0,2.9,1.53,21.4,21.4,0,0,0,5.29.54H183.5a21.89,21.89,0,0,0,5.39-.54,6.23,6.23,0,0,0,2.9-1.53,5.89,5.89,0,0,0,1.47-2.87,23.55,23.55,0,0,0,.5-5.31V49a23.08,23.08,0,0,0-.5-5.21,6.26,6.26,0,0,0-1.49-2.94,5.61,5.61,0,0,0-2.85-1.5,24.05,24.05,0,0,0-5.42-.5Z"/><path class="cls-2" d="M185,24.69a50.55,50.55,0,0,1,12.07,1.23,18.33,18.33,0,0,1,7.86,3.85,14.69,14.69,0,0,1,4.22,6.73,33.69,33.69,0,0,1,1.28,9.89V61.78a33.57,33.57,0,0,1-1.28,9.88,14.67,14.67,0,0,1-4.22,6.74,17.84,17.84,0,0,1-7.86,3.79A53,53,0,0,1,185,83.37H154.75a52.88,52.88,0,0,1-12.13-1.18,17.82,17.82,0,0,1-7.8-3.79,14.59,14.59,0,0,1-4.22-6.74,33.24,33.24,0,0,1-1.28-9.88V46.39a33.35,33.35,0,0,1,1.28-9.89,14.61,14.61,0,0,1,4.22-6.73,18.31,18.31,0,0,1,7.8-3.85,50.45,50.45,0,0,1,12.13-1.23H185M156.25,70.86H183.5a23,23,0,0,0,5.77-.59,7.66,7.66,0,0,0,3.58-1.92,7.35,7.35,0,0,0,1.87-3.58,24.76,24.76,0,0,0,.54-5.66V49a24.15,24.15,0,0,0-.54-5.55,7.75,7.75,0,0,0-1.87-3.64,7.17,7.17,0,0,0-3.58-1.92,25.38,25.38,0,0,0-5.77-.54H156.25a24.86,24.86,0,0,0-5.67.54A7.21,7.21,0,0,0,147,39.76a7.75,7.75,0,0,0-1.87,3.64A24.79,24.79,0,0,0,144.6,49V59.11a25.41,25.41,0,0,0,.53,5.66A7.35,7.35,0,0,0,147,68.35a7.71,7.71,0,0,0,3.58,1.92,22.51,22.51,0,0,0,5.67.59M185,21.69H154.75A54,54,0,0,0,141.89,23a21.3,21.3,0,0,0-9.06,4.52,17.56,17.56,0,0,0-5.09,8.08,36.3,36.3,0,0,0-1.42,10.78V61.78a36.3,36.3,0,0,0,1.42,10.78,17.61,17.61,0,0,0,5.09,8.08,20.82,20.82,0,0,0,9.09,4.47,56.08,56.08,0,0,0,12.83,1.26H185a56.26,56.26,0,0,0,12.77-1.26,20.84,20.84,0,0,0,9.15-4.47A17.69,17.69,0,0,0,212,72.56a36.63,36.63,0,0,0,1.42-10.78V46.39A36.63,36.63,0,0,0,212,35.61a17.64,17.64,0,0,0-5.09-8.08A21.43,21.43,0,0,0,197.8,23,54.1,54.1,0,0,0,185,21.69ZM156.25,67.86a19.68,19.68,0,0,1-4.9-.49,4.7,4.7,0,0,1-2.22-1.14,4.49,4.49,0,0,1-1.08-2.15,22.27,22.27,0,0,1-.45-5V49a21.64,21.64,0,0,1,.45-4.86,4.72,4.72,0,0,1,1.12-2.25,4.18,4.18,0,0,1,2.11-1.08,22.19,22.19,0,0,1,5-.46H183.5a23,23,0,0,1,5.08.46,4.22,4.22,0,0,1,2.11,1.08,4.72,4.72,0,0,1,1.11,2.25,21.69,21.69,0,0,1,.46,4.86V59.11a22.32,22.32,0,0,1-.46,5,4.4,4.4,0,0,1-1.07,2.15,4.84,4.84,0,0,1-2.22,1.14,20.38,20.38,0,0,1-5,.49Z"/><path class="cls-4" d="M253.28,84.87a12.77,12.77,0,0,1-6.18-1.26,10.81,10.81,0,0,1-4-4.32L213.83,28.11a3.54,3.54,0,0,1-.21-3.25,2.93,2.93,0,0,1,2.9-1.67h12.29a4.15,4.15,0,0,1,3.91,2.33l25,44h.3l25.16-44a4.84,4.84,0,0,1,1.4-1.61,4.23,4.23,0,0,1,2.47-.65h11.86a3,3,0,0,1,2.91,1.67,3.54,3.54,0,0,1-.18,3.18L272.33,79.3a10.87,10.87,0,0,1-4,4.31,13,13,0,0,1-6.28,1.26Z"/><path class="cls-2" d="M298.92,24.69a1.53,1.53,0,0,1,1.55.81,2.11,2.11,0,0,1-.16,1.87L271,78.56a9.24,9.24,0,0,1-3.41,3.74,11.71,11.71,0,0,1-5.56,1.07h-8.77a11.42,11.42,0,0,1-5.45-1.07,9.32,9.32,0,0,1-3.42-3.74L215.13,27.37A2.11,2.11,0,0,1,215,25.5a1.53,1.53,0,0,1,1.55-.81h12.29a2.64,2.64,0,0,1,2.57,1.5l25.11,44.14a1.36,1.36,0,0,0,1.18.64h.42a1.37,1.37,0,0,0,1.18-.64l25.22-44.14a3.27,3.27,0,0,1,1-1.12,2.81,2.81,0,0,1,1.61-.38h11.86m0-3H287.06a5.6,5.6,0,0,0-3.33.92,6.45,6.45,0,0,0-1.85,2.1l-24,42L234,24.76a5.67,5.67,0,0,0-5.21-3.07H216.52a4.48,4.48,0,0,0-4.27,2.54,5,5,0,0,0,.2,4.48l0,.07,0,.08,29.28,51.19a12.23,12.23,0,0,0,4.57,4.87,14.09,14.09,0,0,0,6.9,1.45h8.77a14.34,14.34,0,0,0,7-1.45,12.21,12.21,0,0,0,4.58-4.9l29.27-51.16,0-.08,0-.07a5,5,0,0,0,.2-4.48,4.49,4.49,0,0,0-4.27-2.54Z"/><path class="cls-5" d="M311.21,84.87A3.54,3.54,0,0,1,307.35,81V27.15a3.59,3.59,0,0,1,3.86-4h10.47c2.41,0,3.85,1.48,3.85,4V81a3.54,3.54,0,0,1-3.85,3.86Zm0-65.41a3.64,3.64,0,0,1-4-4V5.35c0-2.41,1.48-3.85,4-3.85h10.47a3.54,3.54,0,0,1,3.85,3.85V15.5c0,2.48-1.44,4-3.85,4Z"/><path class="cls-2" d="M321.68,3A2.07,2.07,0,0,1,324,5.35V15.5c0,1.64-.78,2.46-2.35,2.46H311.21a2.17,2.17,0,0,1-2.46-2.46V5.35c0-1.57.82-2.35,2.46-2.35h10.47m0,21.69c1.57,0,2.35.82,2.35,2.46V81a2.08,2.08,0,0,1-2.35,2.36H311.21A2.08,2.08,0,0,1,308.86,81V27.15c0-1.64.78-2.46,2.35-2.46h10.47m0-24.69H311.21c-3.32,0-5.46,2.1-5.46,5.35V15.5A5.11,5.11,0,0,0,311.21,21h10.47c3.25,0,5.35-2.14,5.35-5.46V5.35A5.07,5.07,0,0,0,321.68,0Zm0,21.69H311.21a5.07,5.07,0,0,0-5.35,5.46V81a5.07,5.07,0,0,0,5.35,5.36h10.47A5.07,5.07,0,0,0,327,81V27.15a5.07,5.07,0,0,0-5.35-5.46Z"/><path class="cls-6" d="M360.69,84.87a54.26,54.26,0,0,1-12.49-1.22,19.32,19.32,0,0,1-8.44-4.13,16.1,16.1,0,0,1-4.66-7.41,35,35,0,0,1-1.35-10.33V46.39a34.93,34.93,0,0,1,1.35-10.33,16.1,16.1,0,0,1,4.66-7.41,19.72,19.72,0,0,1,8.43-4.18,52,52,0,0,1,12.5-1.28H392a39.46,39.46,0,0,1,9.4,1,13.5,13.5,0,0,1,6.35,3.38,13,13,0,0,1,3.33,6.15,35.13,35.13,0,0,1,.91,8.54V52.37c0,2.76-.66,4.68-2,5.88a8.19,8.19,0,0,1-5.6,1.71H351.93V61c0,2.9.64,5,1.92,6.17.9.84,3.08,1.84,8.33,1.84h44.57a3.17,3.17,0,0,1,3.42,3.42v9a3.18,3.18,0,0,1-3.42,3.43Zm33-37.42a.88.88,0,0,0,.3,0s0-.12,0-.28V42.65c0-1.76-.32-3-.95-3.65-.35-.35-1.35-.94-4.06-.94H362.18c-5.26,0-7.44,1-8.34,1.8-1.27,1.15-1.91,3.24-1.91,6.21v1.38Z"/><path class="cls-2" d="M392,24.69a37.84,37.84,0,0,1,9,.91,12.12,12.12,0,0,1,5.66,3,11.54,11.54,0,0,1,2.94,5.46,33.55,33.55,0,0,1,.86,8.17V52.37q0,3.42-1.5,4.76a6.76,6.76,0,0,1-4.6,1.33h-54V61q0,5,2.4,7.27t9.35,2.24h44.57a1.7,1.7,0,0,1,1.92,1.92v9a1.7,1.7,0,0,1-1.92,1.93H360.69a52.82,52.82,0,0,1-12.13-1.18,17.8,17.8,0,0,1-7.81-3.79,14.67,14.67,0,0,1-4.22-6.74,33.57,33.57,0,0,1-1.28-9.88V46.39a33.69,33.69,0,0,1,1.28-9.89,14.69,14.69,0,0,1,4.22-6.73,18.3,18.3,0,0,1,7.81-3.85,50.4,50.4,0,0,1,12.13-1.23H392M350.43,49h43.28a1.6,1.6,0,0,0,1.81-1.81V42.65q0-3.32-1.38-4.7T389,36.56H362.18q-6.94,0-9.35,2.19t-2.4,7.32V49M392,21.69H360.69A54,54,0,0,0,347.82,23a21.3,21.3,0,0,0-9.06,4.52,17.59,17.59,0,0,0-5.09,8.08,36.63,36.63,0,0,0-1.42,10.78V61.78a36.63,36.63,0,0,0,1.42,10.78,17.64,17.64,0,0,0,5.09,8.08,20.82,20.82,0,0,0,9.09,4.47,56.11,56.11,0,0,0,12.84,1.26h46.06a4.66,4.66,0,0,0,4.92-4.93v-9a4.66,4.66,0,0,0-4.92-4.92H362.18c-5.2,0-6.84-1-7.3-1.44-1.1-1-1.41-3-1.45-4.64h51a9.62,9.62,0,0,0,6.6-2.09c1.66-1.48,2.5-3.84,2.5-7V42.22a36.69,36.69,0,0,0-.95-8.91,14.52,14.52,0,0,0-3.73-6.84,15,15,0,0,0-7-3.78,41,41,0,0,0-9.77-1ZM353.43,46c0-1.72.27-3.94,1.42-5,.47-.42,2.11-1.4,7.33-1.4H389c2.39,0,3,.51,3,.51a4.4,4.4,0,0,1,.5,2.58V46Z"/><path class="cls-7" d="M425.45,84.87a4.33,4.33,0,0,1-4.71-4.71V11.76a4.32,4.32,0,0,1,4.71-4.7H487c7.7,0,13.31,1.61,16.69,4.79s5.12,8,5.12,14.34v5.13c0,5.68-1.94,10.21-5.76,13.49,4.18,3.16,6.29,7.81,6.29,13.87v6.2a30.33,30.33,0,0,1-1,8.1,16,16,0,0,1-3.49,6.43,15.66,15.66,0,0,1-6.44,4.09,28.71,28.71,0,0,1-9.47,1.37ZM483.8,67.12c2.43,0,4.2-.41,5.12-1.19s1.29-2,1.29-3.83V58a4.83,4.83,0,0,0-1.46-3.89c-.71-.61-2.39-1.35-6.34-1.35H440.09V67.12Zm-1.39-29c4,0,5.62-.69,6.3-1.26a4.29,4.29,0,0,0,1.39-3.55V29.72A4.54,4.54,0,0,0,488.77,26c-.95-.79-2.71-1.21-5.08-1.21h-43.6V38.16Z"/><path class="cls-2" d="M487,8.56q11,0,15.66,4.38t4.65,13.25v5.13q0,9-6.84,13.57,7.36,4.28,7.37,13.79v6.2a28.44,28.44,0,0,1-1,7.69,14.26,14.26,0,0,1-3.15,5.83,14,14,0,0,1-5.83,3.68,27,27,0,0,1-9,1.29H425.45q-3.21,0-3.21-3.21V11.76q0-3.19,3.21-3.2H487m-48.41,31.1h43.82q5.34,0,7.27-1.61a5.77,5.77,0,0,0,1.92-4.7V29.72a6,6,0,0,0-1.87-4.87q-1.87-1.55-6-1.55H440a1.23,1.23,0,0,0-1.39,1.39v15m1.39,29H483.8q4.27,0,6.09-1.55t1.81-5V58a6.3,6.3,0,0,0-2-5c-1.32-1.13-3.76-1.71-7.32-1.71H438.59V67.23A1.23,1.23,0,0,0,440,68.62M487,5.56H425.45a5.81,5.81,0,0,0-6.21,6.2v68.4a5.82,5.82,0,0,0,6.21,6.21h63.48a30.09,30.09,0,0,0,10-1.46A17.07,17.07,0,0,0,506,80.42a17.39,17.39,0,0,0,3.82-7,31.58,31.58,0,0,0,1.07-8.5v-6.2c0-5.88-1.85-10.55-5.53-13.94,3.32-3.44,5-7.94,5-13.42V26.19c0-6.74-1.88-11.94-5.59-15.43s-9.51-5.2-17.72-5.2ZM441.59,26.3h42.1c2.78,0,3.81.61,4.13.87a3.28,3.28,0,0,1,.78,2.55v3.63c0,1.7-.61,2.21-.85,2.4s-1.29.91-5.34.91H441.59V26.3Zm0,28h40.82c3.92,0,5.09.76,5.36,1s.93.81.93,2.75V62.1a3.74,3.74,0,0,1-.76,2.68c-.23.2-1.2.84-4.14.84H441.59V54.3Z"/><path class="cls-8" d="M544.6,84.87a54.23,54.23,0,0,1-12.48-1.22,19.32,19.32,0,0,1-8.44-4.13A16.1,16.1,0,0,1,519,72.11a35,35,0,0,1-1.35-10.33V46.39A34.93,34.93,0,0,1,519,36.06a16.1,16.1,0,0,1,4.66-7.41,19.66,19.66,0,0,1,8.43-4.18,51.92,51.92,0,0,1,12.49-1.28h30.25a52.12,52.12,0,0,1,12.44,1.28,19.85,19.85,0,0,1,8.49,4.18,16.16,16.16,0,0,1,4.65,7.41,35,35,0,0,1,1.35,10.33V61.78a35,35,0,0,1-1.35,10.33,16.16,16.16,0,0,1-4.65,7.41,19.44,19.44,0,0,1-8.51,4.13,54.28,54.28,0,0,1-12.42,1.22Zm1.5-46.07a23.58,23.58,0,0,0-5.32.5,5.69,5.69,0,0,0-2.84,1.5,6.26,6.26,0,0,0-1.49,2.94A23,23,0,0,0,536,49V59.11a23.42,23.42,0,0,0,.5,5.31,5.8,5.8,0,0,0,1.47,2.87,6.19,6.19,0,0,0,2.89,1.53,21.46,21.46,0,0,0,5.29.54h27.25a21.83,21.83,0,0,0,5.39-.54,6.18,6.18,0,0,0,2.9-1.53,5.72,5.72,0,0,0,1.47-2.87,23.49,23.49,0,0,0,.5-5.31V49a23,23,0,0,0-.5-5.21,6.12,6.12,0,0,0-1.49-2.94,5.57,5.57,0,0,0-2.85-1.5,24.05,24.05,0,0,0-5.42-.5Z"/><path class="cls-2" d="M574.85,24.69a50.5,50.5,0,0,1,12.07,1.23,18.33,18.33,0,0,1,7.86,3.85A14.69,14.69,0,0,1,599,36.5a33.69,33.69,0,0,1,1.28,9.89V61.78A33.57,33.57,0,0,1,599,71.66a14.67,14.67,0,0,1-4.22,6.74,17.84,17.84,0,0,1-7.86,3.79,52.93,52.93,0,0,1-12.07,1.18H544.6a52.94,52.94,0,0,1-12.13-1.18,17.82,17.82,0,0,1-7.8-3.79,14.67,14.67,0,0,1-4.22-6.74,33.57,33.57,0,0,1-1.28-9.88V46.39a33.69,33.69,0,0,1,1.28-9.89,14.69,14.69,0,0,1,4.22-6.73,18.31,18.31,0,0,1,7.8-3.85,50.51,50.51,0,0,1,12.13-1.23h30.25M546.1,70.86h27.25a22.94,22.94,0,0,0,5.77-.59,7.66,7.66,0,0,0,3.58-1.92,7.35,7.35,0,0,0,1.87-3.58,24.76,24.76,0,0,0,.54-5.66V49a24.15,24.15,0,0,0-.54-5.55,7.75,7.75,0,0,0-1.87-3.64,7.17,7.17,0,0,0-3.58-1.92,25.32,25.32,0,0,0-5.77-.54H546.1a24.7,24.7,0,0,0-5.66.54,7.17,7.17,0,0,0-3.58,1.92A7.57,7.57,0,0,0,535,43.4a24.15,24.15,0,0,0-.54,5.55V59.11a24.76,24.76,0,0,0,.54,5.66,7.19,7.19,0,0,0,1.87,3.58,7.66,7.66,0,0,0,3.58,1.92,22.38,22.38,0,0,0,5.66.59m28.75-49.17H544.6A54,54,0,0,0,531.74,23a21.3,21.3,0,0,0-9.06,4.52,17.59,17.59,0,0,0-5.09,8.08,36.63,36.63,0,0,0-1.42,10.78V61.78a36.63,36.63,0,0,0,1.42,10.78,17.64,17.64,0,0,0,5.09,8.08,20.82,20.82,0,0,0,9.09,4.47,56.08,56.08,0,0,0,12.83,1.26h30.25a56.2,56.2,0,0,0,12.77-1.26,20.84,20.84,0,0,0,9.15-4.47,17.59,17.59,0,0,0,5.09-8.08,36.35,36.35,0,0,0,1.42-10.78V46.39a36.3,36.3,0,0,0-1.42-10.78,17.59,17.59,0,0,0-5.09-8.08A21.32,21.32,0,0,0,587.65,23a54,54,0,0,0-12.8-1.32ZM546.1,67.86a19.79,19.79,0,0,1-4.9-.49A4.7,4.7,0,0,1,539,66.23a4.4,4.4,0,0,1-1.07-2.15,21.74,21.74,0,0,1-.46-5V49a21.7,21.7,0,0,1,.45-4.86A4.82,4.82,0,0,1,539,41.84a4.22,4.22,0,0,1,2.11-1.08,22.26,22.26,0,0,1,5-.46h27.25a22.9,22.9,0,0,1,5.08.46,4.23,4.23,0,0,1,2.12,1.09,4.76,4.76,0,0,1,1.11,2.25,22.14,22.14,0,0,1,.45,4.85V59.11a22.32,22.32,0,0,1-.46,5,4.4,4.4,0,0,1-1.07,2.15,4.8,4.8,0,0,1-2.21,1.14,20.46,20.46,0,0,1-5,.49Z"/><path class="cls-9" d="M640.15,84.87a41.24,41.24,0,0,1-11-1.24,16.2,16.2,0,0,1-7.35-4.13A15.31,15.31,0,0,1,618,72.17a44.6,44.6,0,0,1-1-10.07V38.8H608.3a3.18,3.18,0,0,1-3.43-3.42V26.62a3.19,3.19,0,0,1,3.43-3.43H617V10.59a3.54,3.54,0,0,1,3.85-3.85h10.58a3.54,3.54,0,0,1,3.85,3.85v12.6h17.21a3.18,3.18,0,0,1,3.42,3.43v8.76a3.17,3.17,0,0,1-3.42,3.42H635.23V62.1c0,2.61.49,4.48,1.45,5.58.62.72,2.18,1.57,6,1.57h10.37a3.18,3.18,0,0,1,3.42,3.43v8.76a3.18,3.18,0,0,1-3.42,3.43Z"/><path class="cls-2" d="M631.38,8.24a2.07,2.07,0,0,1,2.35,2.35v14.1h18.71a1.7,1.7,0,0,1,1.92,1.93v8.76a1.7,1.7,0,0,1-1.92,1.92H633.73V62.1q0,4.49,1.82,6.57t7.16,2.08h10.37A1.7,1.7,0,0,1,655,72.68v8.76a1.7,1.7,0,0,1-1.92,1.93H640.15a39.86,39.86,0,0,1-10.58-1.18,14.65,14.65,0,0,1-6.68-3.74,13.73,13.73,0,0,1-3.48-6.63,42.68,42.68,0,0,1-1-9.72V37.3H608.3a1.7,1.7,0,0,1-1.93-1.92V26.62a1.71,1.71,0,0,1,1.93-1.93h10.15V10.59a2.07,2.07,0,0,1,2.35-2.35h10.58m0-3H620.8a5.07,5.07,0,0,0-5.35,5.35v11.1H608.3a4.67,4.67,0,0,0-4.93,4.93v8.76a4.66,4.66,0,0,0,4.93,4.92h7.15V62.1a46,46,0,0,0,1,10.42,16.87,16.87,0,0,0,4.25,8,17.79,17.79,0,0,0,8,4.53,42.56,42.56,0,0,0,11.4,1.29h12.93A4.66,4.66,0,0,0,658,81.44V72.68a4.66,4.66,0,0,0-4.92-4.93H642.71c-3.79,0-4.75-.87-4.9-1-.69-.8-1.08-2.43-1.08-4.6V40.3h15.71a4.66,4.66,0,0,0,4.92-4.92V26.62a4.66,4.66,0,0,0-4.92-4.93H636.73V10.59a5.07,5.07,0,0,0-5.35-5.35Z"/></g></g></svg>